<?xml version="1.0" encoding="UTF-8"?>
<svg id="Capa_1" data-name="Capa 1" xmlns="http://www.w3.org/2000/svg" viewBox="0 0 512.69 32.8">
  <defs>
    <style>
      .cls-1 {
        fill: #fff;
      }

      .cls-2 {
        fill: #d1552a;
      }
    </style>
  </defs>
  <g>
    <rect class="cls-1" x="1" y="1" width="510.69" height="30.8" rx="15.4" ry="15.4"/>
    <path d="M496.29,32.8H16.4C7.36,32.8,0,25.44,0,16.4S7.36,0,16.4,0h479.89c9.04,0,16.4,7.36,16.4,16.4s-7.36,16.4-16.4,16.4ZM16.4,2c-7.94,0-14.4,6.46-14.4,14.4s6.46,14.4,14.4,14.4h479.89c7.94,0,14.4-6.46,14.4-14.4s-6.46-14.4-14.4-14.4H16.4Z"/>
  </g>
  <rect class="cls-2" x="1" y="1" width="490.45" height="30.8" rx="15.4" ry="15.4"/>
  <path d="M476.05,32.8H16.4C7.36,32.8,0,25.44,0,16.4S7.36,0,16.4,0h459.65c9.04,0,16.4,7.36,16.4,16.4s-7.36,16.4-16.4,16.4ZM16.4,2c-7.94,0-14.4,6.46-14.4,14.4s6.46,14.4,14.4,14.4h459.65c7.94,0,14.4-6.46,14.4-14.4s-6.46-14.4-14.4-14.4H16.4Z"/>
</svg>