<?xml version="1.0" encoding="UTF-8"?>
<svg id="Capa_1" data-name="Capa 1" xmlns="http://www.w3.org/2000/svg" viewBox="0 0 273.78 52.48">
  <defs>
    <style>
      .cls-1 {
        fill: #fff;
      }
    </style>
  </defs>
  <g>
    <path class="cls-1" d="M27.81,16.68c0,10.23-6.68,16.44-17.53,16.44H0V.1h10.28C21.13.1,27.81,6.45,27.81,16.68ZM10.28,29.57c8.62,0,13.12-4.83,13.12-12.89S18.9,3.6,10.28,3.6h-5.97v25.96h5.97Z"/>
    <path class="cls-1" d="M44.21,6.73c4.83,0,8.15,2.46,9.67,5.16v-4.74h4.36v25.96h-4.36v-4.83c-1.56,2.8-4.93,5.26-9.71,5.26-6.92,0-12.27-5.45-12.27-13.5s5.35-13.31,12.32-13.31ZM45.06,10.47c-4.74,0-8.77,3.46-8.77,9.57s4.03,9.71,8.77,9.71,8.81-3.55,8.81-9.67-4.07-9.62-8.81-9.62Z"/>
    <path class="cls-1" d="M67.09,7.16l8.1,21.98,8.05-21.98h4.6l-10.19,25.96h-5.02l-10.19-25.96h4.64Z"/>
    <path class="cls-1" d="M103.34,33.55c-7.39,0-12.84-5.21-12.84-13.46s5.26-13.36,12.84-13.36,12.46,5.31,12.46,12.41c0,.95-.05,1.71-.14,2.61h-20.75c.33,5.26,4.03,8.15,8.43,8.15,3.88,0,6.35-1.99,7.3-4.79h4.64c-1.33,4.74-5.5,8.43-11.94,8.43ZM94.95,18.24h16.39c.05-5.07-3.74-7.86-8.2-7.86-4.22,0-7.72,2.79-8.2,7.86Z"/>
    <path class="cls-1" d="M127.74,5.4v8.29h11.14v5.26h-11.14v8.77h12.56v5.4h-19.19V0h19.19v5.4h-12.56Z"/>
    <path class="cls-1" d="M150.58,32.39c-1.71-.77-3.06-1.82-4.05-3.15-.99-1.33-1.54-2.79-1.63-4.41h6.68c.13,1.01.62,1.85,1.49,2.51.87.66,1.95.99,3.25.99s2.25-.25,2.96-.76c.71-.5,1.07-1.15,1.07-1.94,0-.85-.43-1.49-1.3-1.92-.87-.43-2.25-.89-4.15-1.4-1.96-.47-3.56-.96-4.81-1.47-1.25-.5-2.32-1.28-3.22-2.32-.9-1.04-1.35-2.45-1.35-4.22,0-1.45.42-2.78,1.26-3.98.84-1.2,2.04-2.15,3.6-2.84,1.56-.69,3.4-1.04,5.52-1.04,3.13,0,5.62.78,7.49,2.35,1.86,1.56,2.89,3.67,3.08,6.33h-6.35c-.09-1.04-.53-1.87-1.3-2.49-.77-.62-1.81-.92-3.1-.92-1.2,0-2.12.22-2.77.66-.65.44-.97,1.06-.97,1.85,0,.88.44,1.56,1.33,2.01.88.46,2.26.92,4.12,1.4,1.9.47,3.46.96,4.69,1.47,1.23.51,2.3,1.29,3.2,2.35.9,1.06,1.37,2.46,1.4,4.19,0,1.52-.42,2.88-1.26,4.08s-2.04,2.14-3.6,2.82c-1.56.68-3.39,1.02-5.47,1.02s-4.07-.39-5.78-1.16Z"/>
    <path class="cls-1" d="M179.86,12.32v12.7c0,.88.21,1.52.64,1.92.43.4,1.14.59,2.16.59h3.08v5.59h-4.17c-5.59,0-8.39-2.72-8.39-8.15v-12.65h-3.13v-5.45h3.13V.38h6.68v6.49h5.88v5.45h-5.88Z"/>
    <path class="cls-1" d="M214.74,21.99h-19.19c.16,1.9.82,3.38,1.99,4.45,1.17,1.07,2.61,1.61,4.31,1.61,2.46,0,4.22-1.06,5.26-3.17h7.15c-.76,2.53-2.21,4.6-4.36,6.23-2.15,1.63-4.79,2.44-7.91,2.44-2.53,0-4.79-.56-6.8-1.68-2.01-1.12-3.57-2.71-4.69-4.76-1.12-2.05-1.68-4.42-1.68-7.11s.55-5.1,1.66-7.16c1.1-2.05,2.65-3.63,4.64-4.74,1.99-1.11,4.28-1.66,6.87-1.66s4.73.54,6.71,1.61c1.97,1.07,3.51,2.6,4.6,4.57,1.09,1.97,1.63,4.24,1.63,6.8,0,.95-.06,1.8-.19,2.56ZM208.06,17.53c-.03-1.71-.65-3.07-1.85-4.1-1.2-1.03-2.67-1.54-4.41-1.54-1.64,0-3.02.5-4.15,1.49-1.12,1-1.81,2.38-2.06,4.15h12.46Z"/>
    <path class="cls-1" d="M230.7,27.01l6.63-20.14h7.06l-9.71,26.25h-8.05l-9.67-26.25h7.11l6.63,20.14Z"/>
    <path class="cls-1" d="M248.02,12.84c1.06-2.05,2.5-3.63,4.31-4.74,1.82-1.11,3.85-1.66,6.09-1.66,1.96,0,3.67.4,5.14,1.18,1.47.79,2.65,1.79,3.53,2.99v-3.74h6.68v26.25h-6.68v-3.84c-.85,1.23-2.03,2.25-3.53,3.06-1.5.81-3.23,1.21-5.19,1.21-2.21,0-4.23-.57-6.04-1.71-1.82-1.14-3.25-2.74-4.31-4.81-1.06-2.07-1.59-4.45-1.59-7.13s.53-5.01,1.59-7.06ZM266.15,15.85c-.63-1.15-1.49-2.04-2.56-2.65-1.07-.62-2.23-.92-3.46-.92s-2.37.3-3.41.9c-1.04.6-1.89,1.48-2.54,2.63-.65,1.15-.97,2.52-.97,4.1s.32,2.96.97,4.15,1.5,2.09,2.56,2.72c1.06.63,2.19.95,3.39.95s2.38-.31,3.46-.92c1.07-.62,1.93-1.5,2.56-2.65.63-1.15.95-2.53.95-4.15s-.32-2.99-.95-4.15Z"/>
  </g>
  <g>
    <path class="cls-1" d="M7.17,45.27c0,2.52-1.64,4.04-4.31,4.04H.32v-8.12h2.53c2.67,0,4.31,1.56,4.31,4.08ZM2.85,48.44c2.12,0,3.23-1.19,3.23-3.17s-1.11-3.22-3.23-3.22h-1.47v6.39h1.47Z"/>
    <path class="cls-1" d="M11.33,49.42c-1.82,0-3.16-1.28-3.16-3.31s1.29-3.29,3.16-3.29,3.07,1.31,3.07,3.05c0,.23-.01.42-.04.64h-5.11c.08,1.29.99,2,2.08,2,.96,0,1.56-.49,1.79-1.18h1.14c-.33,1.17-1.35,2.07-2.94,2.07ZM9.27,45.65h4.03c.01-1.25-.92-1.94-2.02-1.94-1.04,0-1.9.69-2.02,1.94Z"/>
    <path class="cls-1" d="M18.06,49.42c-1.49,0-2.54-.82-2.61-1.98h1.1c.06.62.61,1.08,1.5,1.08.84,0,1.31-.42,1.31-.94,0-1.42-3.78-.59-3.78-2.97,0-.98.92-1.78,2.34-1.78s2.34.76,2.41,2h-1.06c-.05-.64-.54-1.11-1.39-1.11-.78,0-1.25.37-1.25.89,0,1.52,3.71.69,3.75,2.97,0,1.05-.92,1.84-2.33,1.84Z"/>
    <path class="cls-1" d="M24.52,42.82c1.19,0,2.01.61,2.38,1.27v-1.17h1.07v6.39h-1.07v-1.19c-.38.69-1.21,1.29-2.39,1.29-1.7,0-3.02-1.34-3.02-3.32s1.32-3.28,3.03-3.28ZM24.73,43.74c-1.17,0-2.16.85-2.16,2.35s.99,2.39,2.16,2.39,2.17-.87,2.17-2.38-1-2.37-2.17-2.37Z"/>
    <path class="cls-1" d="M30.83,49.31h-1.06v-6.39h1.06v1.04c.36-.71,1.05-1.15,2.06-1.15v1.1h-.28c-1.01,0-1.78.46-1.78,1.94v3.47Z"/>
    <path class="cls-1" d="M35.18,49.31h-1.06v-6.39h1.06v1.04c.36-.71,1.05-1.15,2.06-1.15v1.1h-.28c-1.01,0-1.78.46-1.78,1.94v3.47Z"/>
    <path class="cls-1" d="M41.25,49.42c-1.81,0-3.18-1.28-3.18-3.31s1.42-3.29,3.23-3.29,3.23,1.27,3.23,3.29-1.46,3.31-3.28,3.31ZM41.25,48.48c1.11,0,2.19-.76,2.19-2.38s-1.06-2.37-2.16-2.37-2.13.76-2.13,2.37.99,2.38,2.1,2.38Z"/>
    <path class="cls-1" d="M45.93,40.69h1.06v8.63h-1.06v-8.63Z"/>
    <path class="cls-1" d="M48.8,40.69h1.06v8.63h-1.06v-8.63Z"/>
    <path class="cls-1" d="M54.3,42.82c1.19,0,2.01.61,2.38,1.27v-1.17h1.07v6.39h-1.07v-1.19c-.38.69-1.21,1.29-2.39,1.29-1.7,0-3.02-1.34-3.02-3.32s1.32-3.28,3.03-3.28ZM54.51,43.74c-1.17,0-2.16.85-2.16,2.35s.99,2.39,2.16,2.39,2.17-.87,2.17-2.38-1-2.37-2.17-2.37Z"/>
    <path class="cls-1" d="M62.2,42.82c1,0,1.92.51,2.37,1.25v-3.38h1.07v8.63h-1.07v-1.2c-.38.71-1.21,1.31-2.38,1.31-1.71,0-3.03-1.34-3.03-3.32s1.32-3.28,3.04-3.28ZM62.39,43.74c-1.17,0-2.16.85-2.16,2.35s.99,2.39,2.16,2.39,2.17-.87,2.17-2.38-1-2.37-2.17-2.37Z"/>
    <path class="cls-1" d="M70.22,49.42c-1.81,0-3.18-1.28-3.18-3.31s1.42-3.29,3.23-3.29,3.23,1.27,3.23,3.29-1.46,3.31-3.28,3.31ZM70.22,48.48c1.11,0,2.19-.76,2.19-2.38s-1.06-2.37-2.16-2.37-2.13.76-2.13,2.37.99,2.38,2.1,2.38Z"/>
    <path class="cls-1" d="M75.96,49.31h-1.06v-6.39h1.06v1.04c.36-.71,1.05-1.15,2.06-1.15v1.1h-.28c-1.01,0-1.78.46-1.78,1.94v3.47Z"/>
    <path class="cls-1" d="M81.68,41.21h1.41l1.68,6.6,1.82-6.6h1.49l1.69,6.56,1.69-6.56h1.42l-2.4,8.1h-1.5l-1.7-6.13-1.81,6.13h-1.49s-2.3-8.1-2.3-8.1Z"/>
    <path class="cls-1" d="M96.75,49.42c-1.84,0-3.21-1.31-3.21-3.32s1.31-3.31,3.21-3.31,3.12,1.27,3.12,3.16c0,.22-.01.43-.05.65h-4.91c.09,1.06.85,1.7,1.83,1.7.82,0,1.27-.4,1.52-.9h1.43c-.36,1.12-1.38,2.02-2.95,2.02ZM94.93,45.52h3.56c-.02-.99-.8-1.62-1.79-1.62-.9,0-1.62.61-1.76,1.62Z"/>
    <path class="cls-1" d="M104.75,42.78c1.7,0,3.02,1.31,3.02,3.29s-1.33,3.35-3.02,3.35c-1.06,0-1.82-.48-2.24-1.04v.93h-1.33v-8.63h1.33v3.16c.42-.58,1.22-1.06,2.24-1.06ZM104.45,43.94c-.99,0-1.95.78-1.95,2.16s.96,2.17,1.95,2.17,1.96-.8,1.96-2.19-.96-2.13-1.96-2.13Z"/>
    <path class="cls-1" d="M112.1,41.21h1.33v5.17c0,1.26.71,1.85,1.83,1.85s1.84-.59,1.84-1.85v-5.17h1.33v5.14c0,2.06-1.49,3.04-3.18,3.04s-3.15-.98-3.15-3.04v-5.14Z"/>
    <path class="cls-1" d="M120.16,41.21h1.33v8.1h-1.33v-8.1Z"/>
    <path class="cls-1" d="M130.21,42.92c.02-.66-.42-1.03-.99-1.03-.63,0-1.04.4-1.04.93,0,.48.27.87.84,1.48l2.42,2.44c.07-.11.14-.21.21-.33l.79-1.33h1.14l-.96,1.66c-.15.27-.3.5-.47.73l1.83,1.83h-1.39l-1.06-1.07c-.78.82-1.66,1.21-2.8,1.21-1.69,0-2.84-.97-2.84-2.47,0-1.12.64-2.02,1.91-2.52-.5-.58-.7-1.04-.7-1.63,0-1.04.83-1.81,2.15-1.81s2.06.82,2.01,1.9h-1.06ZM130.85,47.54l-2.39-2.4c-1.01.38-1.49.99-1.49,1.81,0,.91.72,1.6,1.78,1.6.84,0,1.49-.33,2.1-1Z"/>
    <path class="cls-1" d="M141.77,41.08c1.76,0,3.16.89,3.77,2.46h-1.27c-.44-.98-1.31-1.53-2.49-1.53-1.7,0-2.97,1.24-2.97,3.23s1.27,3.22,2.97,3.22c1.19,0,2.05-.55,2.49-1.52h1.27c-.61,1.56-2.01,2.44-3.77,2.44-2.27,0-4.06-1.7-4.06-4.14s1.78-4.16,4.06-4.16Z"/>
    <path class="cls-1" d="M149.9,49.42c-1.81,0-3.18-1.28-3.18-3.31s1.42-3.29,3.23-3.29,3.23,1.27,3.23,3.29-1.46,3.31-3.28,3.31ZM149.9,48.48c1.11,0,2.19-.76,2.19-2.38s-1.06-2.37-2.16-2.37-2.13.76-2.13,2.37.99,2.38,2.1,2.38Z"/>
    <path class="cls-1" d="M159.25,45.7c0-1.31-.71-1.97-1.78-1.97s-1.83.68-1.83,2.05v3.53h-1.06v-6.39h1.06v.91c.42-.66,1.19-1.03,2.05-1.03,1.48,0,2.61.91,2.61,2.74v3.77h-1.05v-3.61Z"/>
    <path class="cls-1" d="M162.27,43.8h-.83v-.88h.83v-1.61h1.06v1.61h1.67v.88h-1.67v3.76c0,.63.23.85.89.85h.78v.9h-.96c-1.13,0-1.77-.47-1.77-1.75v-3.76Z"/>
    <path class="cls-1" d="M169.04,49.42c-1.82,0-3.16-1.28-3.16-3.31s1.29-3.29,3.16-3.29,3.07,1.31,3.07,3.05c0,.23-.01.42-.04.64h-5.11c.08,1.29.99,2,2.08,2,.96,0,1.56-.49,1.79-1.18h1.14c-.33,1.17-1.35,2.07-2.94,2.07ZM166.98,45.65h4.03c.01-1.25-.92-1.94-2.02-1.94-1.04,0-1.9.69-2.02,1.94Z"/>
    <path class="cls-1" d="M178.19,45.7c0-1.31-.71-1.97-1.78-1.97s-1.83.68-1.83,2.05v3.53h-1.06v-6.39h1.06v.91c.42-.66,1.19-1.03,2.05-1.03,1.48,0,2.61.91,2.61,2.74v3.77h-1.05v-3.61Z"/>
    <path class="cls-1" d="M181.21,43.8h-.83v-.88h.83v-1.61h1.06v1.61h1.67v.88h-1.67v3.76c0,.63.23.85.89.85h.78v.9h-.96c-1.13,0-1.77-.47-1.77-1.75v-3.76Z"/>
    <path class="cls-1" d="M195.26,45.29c0,2.49-1.7,4.02-4.3,4.02h-2.65v-8.1h2.65c2.6,0,4.3,1.57,4.3,4.08ZM190.96,48.23c1.91,0,2.94-1.1,2.94-2.94s-1.03-3-2.94-3h-1.32v5.93h1.32Z"/>
    <path class="cls-1" d="M199.34,49.42c-1.84,0-3.21-1.31-3.21-3.32s1.31-3.31,3.21-3.31,3.12,1.27,3.12,3.16c0,.22-.01.43-.05.65h-4.91c.09,1.06.85,1.7,1.83,1.7.82,0,1.27-.4,1.52-.9h1.43c-.36,1.12-1.38,2.02-2.95,2.02ZM197.52,45.52h3.56c-.02-.99-.8-1.62-1.79-1.62-.9,0-1.62.61-1.76,1.62Z"/>
    <path class="cls-1" d="M206.1,49.42c-1.54,0-2.62-.91-2.68-2.07h1.38c.05.52.55.96,1.28.96s1.18-.33,1.18-.77c0-1.26-3.73-.54-3.73-2.89,0-1.03.96-1.85,2.47-1.85s2.41.78,2.48,2.06h-1.33c-.05-.56-.48-.94-1.2-.94s-1.08.29-1.08.72c0,1.29,3.63.57,3.7,2.89,0,1.08-.94,1.9-2.46,1.9Z"/>
    <path class="cls-1" d="M209.82,41.19c0-.48.37-.85.85-.85s.84.37.84.85-.37.85-.84.85-.85-.37-.85-.85ZM210,42.89h1.33v6.42h-1.33v-6.42Z"/>
    <path class="cls-1" d="M215.67,42.78c1.05,0,1.83.49,2.23,1.04v-.93h1.34v6.53c0,1.75-1.13,3.07-3.14,3.07-1.71,0-2.98-.85-3.15-2.27h1.32c.2.67.91,1.12,1.83,1.12,1.03,0,1.8-.63,1.8-1.91v-1.07c-.41.55-1.18,1.07-2.23,1.07-1.69,0-3.03-1.36-3.03-3.35s1.34-3.29,3.03-3.29ZM215.94,43.94c-.99,0-1.95.75-1.95,2.13s.96,2.19,1.95,2.19,1.95-.78,1.95-2.17-.94-2.16-1.95-2.16Z"/>
    <path class="cls-1" d="M225.54,45.72c0-1.18-.64-1.78-1.61-1.78s-1.62.61-1.62,1.78v3.59h-1.33v-6.42h1.33v.74c.43-.53,1.14-.84,1.91-.84,1.5,0,2.63.94,2.63,2.74v3.79h-1.32v-3.59Z"/>
    <path class="cls-1" d="M231.31,49.42c-1.84,0-3.21-1.31-3.21-3.32s1.31-3.31,3.21-3.31,3.12,1.27,3.12,3.16c0,.22-.01.43-.05.65h-4.91c.09,1.06.85,1.7,1.83,1.7.82,0,1.27-.4,1.52-.9h1.43c-.36,1.12-1.38,2.02-2.95,2.02ZM229.5,45.52h3.56c-.02-.99-.8-1.62-1.79-1.62-.9,0-1.62.61-1.76,1.62Z"/>
    <path class="cls-1" d="M237.07,49.31h-1.33v-6.42h1.33v.93c.37-.64,1.01-1.04,1.92-1.04v1.38h-.34c-.98,0-1.59.41-1.59,1.77v3.38Z"/>
  </g>
</svg>