<?xml version="1.0" encoding="UTF-8"?>
<svg id="Capa_1" data-name="Capa 1" xmlns="http://www.w3.org/2000/svg" viewBox="0 0 400 400">
  <defs>
    <style>
      .cls-1 {
        fill: #fff;
      }

      .cls-2 {
        fill: #005099;
      }
    </style>
  </defs>
  <rect class="cls-2" x="-.58" y="1.05" width="400" height="400" rx="20" ry="20"/>
  <g>
    <path class="cls-1" d="M163.82,215.36c.06.09,1.4.26,1.93.68,40.25,31.56,116.15,27.09,145.7-17.41l7.12-12.44c-.85,2.46.47,4.78.61,7.28,2.02,37.49-13.6,71.98-43.89,93.99-35.61,25.87-86.04,27.49-122,1.53,51.69,16.24,121.5-1.46,141.92-56.07-5.48,5.33-10.6,11.02-16.66,15.75-42.57,33.3-110.68,37.91-155.26,5.92l-16.4,16.32c-2.7,1.55-6.46.25-7.18-2.81l-20.22-94.08c.26-2.61,2.48-4.1,5.02-4.04l94.43,21.23c2.23,1.21,2.18,3.87,1.49,6.08l-16.08,16.04c-.47.43-.83,1.64-.53,2.05Z"/>
    <g>
      <path class="cls-1" d="M214.03,94.48l2.92.58c38.28.77,74.35,24.41,91.22,58.59,5.05,10.25,7.06,16.61,2.33,27.66-.69,1.61-7.85,14.19-9.44,13.04-1.37-12.96-5.03-25.3-11.1-36.79h-24.53c3.63,12.48,5.81,25.51,5.84,38.55h28.03c.23.99-.38,1.17-.86,1.76-.77.95-9.3,8.16-9.94,8.16h-17.23c-.31,1.83.11,9.19-.72,10.38-.29.42-8.52,3.49-9.5,3.65s-.97.02-.85-.85c.59-4.37,1.24-8.75,1.14-13.18h-43.8c-.03,1.81.59,3.75.61,5.53.03,2.93-.48,5.63-.55,8.26-.04,1.54,1.25,4.13.27,5.52-.81,1.15-8.16-.02-9.29-.71-1.47-.9-.88-1.98-.97-3.41.44-1.12.49-2.39,0-3.5-.06-3.88.05-7.8,0-11.68h-20.44c2.98-2.95,3.56-6.35,4.96-9.93h15.48c.02-3.3-.02-6.63,0-9.93.48-1.11.48-2.39,0-3.5.01-2.72,0-5.46,0-8.18.48-1.11.48-2.39,0-3.5v-8.18c.44-1.08.44-2.24,0-3.5-.14-.51.39-1.59-.32-1.78l-36.39.11-4.27,18.21c-.56,2.06-9.73-.65-9.85-1.16.27-5.83,2.05-11.53,3.53-17.14h-24.53c-.76,1.67-4.73,11.38-5.6,11.58-4.48-1.67-12.13-1.65-16.18-3.53-.67-.31-.96-.37-.91-1.22.12-2.11,5.79-13.09,7.2-15.61,18.36-32.76,55.74-55.17,93.75-54.3ZM207.61,124.27c-.02-3.3.02-6.63,0-9.93-10.18,1.84-18.62,9.74-24.42,17.92-3.32,4.67-6.35,10.06-8.28,15.37h32.71c.02-2.72-.03-5.46,0-8.18.94-.55.96-2.92,0-3.5.01-2.72.01-5.46,0-8.18.94-.55.96-2.92,0-3.5ZM250.83,147.63c-5.83-14.57-16.7-30.03-32.99-33.3l.28,33.3h32.71ZM282.95,147.63c-9.39-12.92-22.86-22.67-37.67-28.62-.63.08.34,1.36.51,1.55,6.98,8.06,12.74,16.87,16.13,27.07h21.03ZM142.78,147.63h21.03c3.61-10.21,9.43-19.5,16.35-27.75-2.14-.53-5.33,1.47-7.4,2.53-11.62,5.97-22.13,14.85-29.98,25.21ZM254.91,157.56h-36.8l-.58,38.55h43.8c-.32-13.08-2.47-26.1-6.42-38.55Z"/>
      <path class="cls-1" d="M207.61,162.82v-3.5c.28.98,1.47,2.48,0,3.5Z"/>
      <path class="cls-1" d="M207.61,174.5v-3.5c.94.55.96,2.92,0,3.5Z"/>
      <path class="cls-1" d="M207.61,186.18c0-1.17,0-2.34,0-3.5.94.55.96,2.92,0,3.5Z"/>
      <path class="cls-1" d="M207.61,221.23c-.07-1.16.02-2.34,0-3.5.94.55.96,2.92,0,3.5Z"/>
      <path class="cls-1" d="M216.95,95.07c-.94-.02-2.43.35-2.92-.58.94.02,2.43-.35,2.92.58Z"/>
      <path class="cls-1" d="M207.61,127.78c0-1.17,0-2.34,0-3.5.96.59.94,2.95,0,3.5Z"/>
      <path class="cls-1" d="M207.61,139.46c.01-1.17,0-2.34,0-3.5.96.59.94,2.95,0,3.5Z"/>
    </g>
  </g>
</svg>