<?xml version="1.0" encoding="UTF-8"?>
<svg id="Capa_1" data-name="Capa 1" xmlns="http://www.w3.org/2000/svg" viewBox="0 0 400 400">
  <defs>
    <style>
      .cls-1 {
        fill: #222f3e;
      }

      .cls-2 {
        fill: #ffff24;
      }
    </style>
  </defs>
  <rect class="cls-2" y="0" width="400" height="400" rx="20" ry="20"/>
  <path class="cls-1" d="M167.74,316.28c-.28,0-.55-.02-.81-.05-3.04-.41-5.96-2.85-6.95-5.82l-21.5-63.03c-8.52-3.26-17.17-6.51-25.56-9.65-12.22-4.59-24.85-9.33-37.22-14.16l-.4-.15-.35-.23c-2.34-1.54-3.8-4.14-3.91-6.95-.11-2.81,1.15-5.51,3.37-7.23l.28-.22,27.63-14.44c39.75-20.77,80.86-42.25,121.31-63.32,4-2.22,8.1-4.44,12.2-6.6l61.42-31.9c.84-.43,1.79-.6,3.38-.6.38,0,1.33.01,2.01.12,3.94.65,6.91,4.12,6.91,8.07v1.29c-.09,1.21-.28,2.5-1.01,3.81l-32.27,179.72-.04.15c-1.02,3.91-4.57,6.64-8.63,6.64-.8,0-1.59-.11-2.36-.32l-.12-.04-49.21-17.23c-13.23,12.31-26.38,24.54-39.43,36.71-1.36,3.33-4.27,5.42-7.71,5.42h-.29s-.05,0-.05,0h-.12c-.19.02-.39.02-.57.02ZM182.74,280.89l14.49-13.51-11.36-3.94-3.13,17.45ZM165.92,273.96c.19-.9.37-1.8.56-2.69,1.15-5.52,2.34-11.23,3.3-16.84.02-.1.04-.22.07-.36-.15-.38-.29-.82-.36-1.31-.27-1.87.08-3.84.97-5.55l.18-.34.24-.3c6.07-7.54,12.32-15.15,18.36-22.51,3.83-4.66,7.65-9.32,11.46-14,6.9-8.47,13.79-16.95,20.68-25.44l-65.56,59.51,10.1,29.83ZM260.91,271.25l24.49-137.01-92.55,113.06,68.06,23.95ZM144.28,230.85l99.55-90.57-142.78,74.32,43.23,16.25Z"/>
</svg>