<?xml version="1.0" encoding="UTF-8"?>
<svg id="Capa_1" data-name="Capa 1" xmlns="http://www.w3.org/2000/svg" viewBox="0 0 400 400">
  <defs>
    <style>
      .cls-1 {
        fill-rule: evenodd;
      }

      .cls-1, .cls-2 {
        fill: #fff;
      }

      .cls-3 {
        fill: #007dff;
      }
    </style>
  </defs>
  <rect class="cls-3" y="0" width="400" height="400" rx="20" ry="20"/>
  <g>
    <circle class="cls-2" cx="123.03" cy="103.24" r="21.74"/>
    <path class="cls-1" d="M105.62,160.22h34.82s0,93.82,0,98.13c0,7.66,5,23.69,22.08,23.69s22.24-15.66,22.24-23.69v-43.59c0-22.93,20.07-56.12,56.98-56.12s56.98,34.12,56.98,56.16v103.7h-34.82s0-92.53,0-100.08c0-13.04-8.37-24.96-22.16-24.96-10.43,0-22.16,8.2-22.16,24.86v41.07c0,27.52-22.92,57.53-56.98,57.53-36.09,0-56.98-30.94-56.98-58.56v-98.13Z"/>
  </g>
</svg>