<?xml version="1.0" encoding="UTF-8"?>
<svg id="Capa_1" data-name="Capa 1" xmlns="http://www.w3.org/2000/svg" viewBox="0 0 400 400">
  <defs>
    <style>
      .cls-1 {
        fill: #fff;
        fill-rule: evenodd;
      }

      .cls-2 {
        fill: #3e2a7b;
      }
    </style>
  </defs>
  <rect class="cls-2" width="400" height="400" rx="20" ry="20"/>
  <g>
    <path class="cls-1" d="M251.71,214.37c-6.36,6.36-14.84,10.6-25.44,11.66,63.61,12.72,105.3-28.27,114.84-74.56,11.66-57.6-67.49-72.79-66.43-11.66.71,30.74-4.95,60.43-22.97,74.56Z"/>
    <path class="cls-1" d="M124.85,270.55c8.48-32.86,13.43-77.03,33.57-96.12,4.95-6.01,10.6-9.89,17.31-12.72,1.06-.35,2.47-.71,3.89-1.06-59.01-19.79-104.24,30.39-118.73,78.09-18.73,61.13,50.88,83.75,63.96,31.8Z"/>
    <path class="cls-1" d="M155.24,228.15c9.89-7.42,24.03-10.6,40.99-7.07h0c10.95,2.47,22.26.71,31.45-5.65,20.14-13.43,28.62-41.34,28.98-70.32-6.71,13.78-14.84,20.14-23.68,22.62h0c-7.07,1.77-14.84,1.06-22.97-.71-4.95-1.06-12.72-.71-17.31,1.06-17.67,7.42-29.68,26.86-37.46,60.07Z"/>
  </g>
</svg>