<?xml version="1.0" encoding="UTF-8"?>
<svg id="Capa_1" data-name="Capa 1" xmlns="http://www.w3.org/2000/svg" viewBox="0 0 400 400">
  <defs>
    <style>
      .cls-1 {
        fill: #ff7a59;
      }

      .cls-2 {
        fill: #fff;
      }
    </style>
  </defs>
  <rect class="cls-1" width="400" height="400" rx="20" ry="20"/>
  <g id="mz1FTB.tif">
    <g>
      <path class="cls-2" d="M73.3,97.4c-.3-.2-.18-.75-.18-1.09.31.2.17.74.18,1.09Z"/>
      <g>
        <path class="cls-2" d="M98.86,67.3c1.11-.06,2.32-.01,3.44,0l1.09.18c15.86.83,26.55,16.6,24.24,31.76-.17,1.12-.99,2.19.23,2.95l85.86,66.77c9.45-7.4,20.73-12.55,32.68-14.3l.02-31.59c-13.36-6.28-18.08-23.25-10.16-35.75,9.61-15.17,32.46-15.17,41.95.11,7.81,12.57,3.14,29.34-10.23,35.64l.02,31.59c32.61,4.6,58.64,33.89,58.71,67l.19.44v2.18c.4,23.95-13.59,46.93-34.24,58.97-24.51,14.29-54.78,12.23-77.38-4.62-8.4,8.34-16.8,16.67-25.19,24.99,4.1,13.67-5.97,28.92-20.35,29.07-1.29-.08-2.71.11-3.99,0-19.56-1.71-27.45-27.14-12.23-39.87,5.81-4.86,13.81-6.55,21.08-4.21l25.75-25.83c-9.29-13.75-13.85-30.26-12.12-46.92,1.15-11.08,5.15-21.62,11.03-30.97l-85.18-66.37c-14.09,8.14-32.1,2.1-38.64-12.65-1.17-2.65-2.05-5.55-2.14-8.46l-.18-1.09c-.21-14.66,9.67-27.82,24.83-29,.29.13.62.15.91,0ZM253.08,187.72c-23.71,1.69-38.8,27.21-29.6,49.07,11.27,26.78,48.4,29.34,63.13,4.23,14.63-24.94-4.96-55.33-33.54-53.3Z"/>
        <path class="cls-2" d="M103.39,67.49c-.34-.02-.89.13-1.09-.18.34,0,.89-.12,1.09.18Z"/>
        <path class="cls-2" d="M98.86,67.3c-.12.29-.79.29-.91,0,.3-.02.61.02.91,0Z"/>
      </g>
    </g>
  </g>
</svg>