<?xml version="1.0" encoding="UTF-8"?>
<svg id="Capa_1" data-name="Capa 1" xmlns="http://www.w3.org/2000/svg" viewBox="0 0 400 400">
  <defs>
    <style>
      .cls-1 {
        fill: #515151;
      }
    </style>
  </defs>
  <path class="cls-1" d="M281.99,188.44l-23.37,77.87c-3.05,10.11-10.77,18.13-20.78,21.49l-134.27,45.01c-5.76,1.93-12.12.51-16.47-3.71l78-78.03c3.2,1.52,6.76,2.39,10.06,2.39,13.92,0,24.38-10.92,24.38-24.38s-10.46-24.38-24.38-24.38c-13,0-24.38,10.92-24.38,24.38,0,3.76,1.32,7.32,2.84,10.52l-78.02,78.03c-4.22-4.37-5.66-10.72-3.73-16.51l45.02-134.26c2.9-10.01,11.38-17.73,21.49-20.78l77.42-23.37,66.19,65.73ZM257.1,83.97c11.12-11.11,29.11-11.11,40.23,0l23.42,23.4c11.07,11.11,11.07,29.11,0,40.23l-28.35,28.29-63.6-63.62,28.29-28.3Z"/>
</svg>