<?xml version="1.0" encoding="UTF-8"?>
<svg id="Capa_1" data-name="Capa 1" xmlns="http://www.w3.org/2000/svg" viewBox="0 0 400 400">
  <defs>
    <style>
      .cls-1 {
        fill: #515151;
      }
    </style>
  </defs>
  <path class="cls-1" d="M121.39,158.92l-45.79,45.81,45.79,45.81c6.41,6.41,6.41,16.76,0,23.16s-16.76,6.41-23.16,0l-57.41-57.4c-6.4-6.41-6.4-16.76,0-23.16l57.41-57.4c6.41-6.41,16.76-6.41,23.16,0s6.41,16.76,0,23.16ZM248.58,94.45l-65.59,229.59c-2.51,8.71-11.58,13.73-20.29,11.27-8.71-2.51-13.73-11.58-11.27-20.29l65.6-229.58c2.51-8.71,11.58-13.75,20.29-11.26,8.71,2.49,13.73,11.56,11.27,20.27ZM301.77,135.76l57.4,57.4c6.41,6.41,6.41,16.76,0,23.16l-57.4,57.4c-6.41,6.41-16.76,6.41-23.16,0-6.41-6.41-6.41-16.76,0-23.16l45.76-45.81-45.76-45.81c-6.41-6.41-6.41-16.76,0-23.16,6.41-6.41,16.76-6.41,23.16,0Z"/>
</svg>