<?xml version="1.0" encoding="UTF-8"?>
<svg id="Capa_1" data-name="Capa 1" xmlns="http://www.w3.org/2000/svg" viewBox="0 0 400 400">
  <defs>
    <style>
      .cls-1 {
        fill: #515151;
      }
    </style>
  </defs>
  <path class="cls-1" d="M145.2,246.97c-18.69,0-36.11-4.36-51.18-11.76-12.22,6.32-28.08,11.76-46.85,11.76-1.5,0-2.82-.83-3.44-2.23-.6-1.41-.32-3.01.71-4.09.18-.18,11.35-12.19,19.37-28.22-12.75-14.41-20.39-32.21-20.39-51.57,0-47.56,45.55-86.12,101.78-86.12s101.77,38.56,101.77,86.12-45.55,86.12-101.77,86.12ZM355.54,318.92c1.03,1.08,1.31,2.68.71,4.09-.62,1.41-1.94,2.25-3.43,2.25-17.71,0-32.83-4.89-44.75-10.75-13.47,6.84-28.95,10.75-45.43,10.75-44.48,0-80.88-27.84-91.06-65.32,52.07-10.42,91.06-50.83,91.06-99.08,0-2.64-.25-5.24-.46-7.81.15,0,.3-.02.46-.02,51.87,0,93.95,38.56,93.95,86.12,0,19.87-7.44,38.12-19.77,52.7,7.98,15.46,18.59,26.91,18.73,27.08Z"/>
</svg>